#Comment line ignore any data following # character 
#Hierarchical Translation and Rotation (.htr) file 
[Header]	
#Header keywords are followed by a single value 
FileType HTR		#Single word string
DataType HTRS		#Translation followed by rotation and scale data
FileVersion 1		#integer
NumSegments 64		#integer
NumFrames 3		#integer
DataFrameRate 30		#integer, data frame rate in this file
EulerRotationOrder ZYX
CalibrationUnits mm
RotationUnits Degrees
GlobalAxisofGravity Y
BoneLengthAxis Y
ScaleFactor 1.00
[SegmentNames&Hierarchy]
#CHILD	PARENT
Pinger_Root GLOBAL
Pelvis Pinger_Root
L_Hip Pelvis
R_Hip Pelvis
Rear_Leg01 Pelvis
Spine1 Pelvis
L_Leg01 L_Hip
L_Leg02 L_Leg01
L_Leg03 L_Leg02
L_Foot L_Leg03
L_Toe1_01 L_Foot
L_Toe2_01 L_Foot
L_Toe3_01 L_Foot
planeAlignerLeft L_Foot
L_Toe1_02 L_Toe1_01
L_Toe1_03 L_Toe1_02
L_Toe2_02 L_Toe2_01
L_Toe2_03 L_Toe2_02
L_Toe3_02 L_Toe3_01
L_Toe3_03 L_Toe3_02
planeLockWeightLeft planeAlignerLeft
R_Leg01 R_Hip
R_Leg02 R_Leg01
R_Leg03 R_Leg02
R_Foot R_Leg03
planeAlignerRight R_Foot
R_Toe1_01 R_Foot
R_Toe2_01 R_Foot
R_Toe3_01 R_Foot
planeLockWeightRight planeAlignerRight
R_Toe1_02 R_Toe1_01
R_Toe1_03 R_Toe1_02
R_Toe2_02 R_Toe2_01
R_Toe2_03 R_Toe2_02
R_Toe3_02 R_Toe3_01
R_Toe3_03 R_Toe3_02
Rear_Leg02 Rear_Leg01
Rear_Leg03 Rear_Leg02
Rear_Leg04 Rear_Leg03
Rear_Foot Rear_Leg04
planeAlignerCenter Rear_Foot
Rear_Toe1_01 Rear_Foot
Rear_Toe2_01 Rear_Foot
Rear_Toe3_01 Rear_Foot
planeLockWeightCenter planeAlignerCenter
Rear_Toe1_02 Rear_Toe1_01
Rear_Toe1_03 Rear_Toe1_02
Rear_Toe2_02 Rear_Toe2_01
Rear_Toe2_03 Rear_Toe2_02
Rear_Toe3_02 Rear_Toe3_01
Rear_Toe3_03 Rear_Toe3_02
Back_Bone Spine1
Head Spine1
Motor_Bone Back_Bone
Ping_Mechanism Back_Bone
BN_LookIK Head
bottomMouth Head
L_Mouth01 Head
L_mouthFront Head
mouthGun Head
R_Mouth01 Head
R_mouthFront Head
TopMouth Head
weapon_bone Head
[BasePosition]
#SegmentName Tx, Ty, Tz, Rx, Ry, Rz, BoneLength
Pinger_Root 0.000000 0.000000 0.000000 -90.000000 0.000000 0.000000 10.000000 
Pelvis 0.000000 0.000000 0.000000 0.000000 0.000000 0.000000 10.000000 
L_Hip 0.000000 0.000000 0.000000 0.000000 0.000000 0.000000 10.000000 
R_Hip 0.000000 0.000000 0.000000 0.000000 0.000000 0.000000 10.000000 
Rear_Leg01 0.000000 0.000000 0.000000 0.000000 0.000000 0.000000 10.000000 
Spine1 0.000000 0.000000 0.000000 0.000000 0.000000 0.000000 10.000000 
L_Leg01 0.000000 0.000000 0.000000 0.000000 0.000000 0.000000 10.000000 
L_Leg02 0.000000 0.000000 0.000000 0.000000 0.000000 0.000000 10.000000 
L_Leg03 0.000000 0.000000 0.000000 0.000000 0.000000 0.000000 10.000000 
L_Foot 0.000000 0.000000 0.000000 0.000000 0.000000 0.000000 10.000000 
L_Toe1_01 0.000000 0.000000 0.000000 0.000000 0.000000 0.000000 10.000000 
L_Toe2_01 0.000000 0.000000 0.000000 0.000000 0.000000 0.000000 10.000000 
L_Toe3_01 0.000000 0.000000 0.000000 0.000000 0.000000 0.000000 10.000000 
planeAlignerLeft 0.000000 0.000000 0.000000 0.000000 0.000000 0.000000 10.000000 
L_Toe1_02 0.000000 0.000000 0.000000 0.000000 0.000000 0.000000 10.000000 
L_Toe1_03 0.000000 0.000000 0.000000 0.000000 0.000000 0.000000 10.000000 
L_Toe2_02 0.000000 0.000000 0.000000 0.000000 0.000000 0.000000 10.000000 
L_Toe2_03 0.000000 0.000000 0.000000 0.000000 0.000000 0.000000 10.000000 
L_Toe3_02 0.000000 0.000000 0.000000 0.000000 0.000000 0.000000 10.000000 
L_Toe3_03 0.000000 0.000000 0.000000 0.000000 0.000000 0.000000 10.000000 
planeLockWeightLeft 0.000000 0.000000 0.000000 0.000000 0.000000 0.000000 10.000000 
R_Leg01 0.000000 0.000000 0.000000 0.000000 0.000000 0.000000 10.000000 
R_Leg02 0.000000 0.000000 0.000000 0.000000 0.000000 0.000000 10.000000 
R_Leg03 0.000000 0.000000 0.000000 0.000000 0.000000 0.000000 10.000000 
R_Foot 0.000000 0.000000 0.000000 0.000000 0.000000 0.000000 10.000000 
planeAlignerRight 0.000000 0.000000 0.000000 0.000000 0.000000 0.000000 10.000000 
R_Toe1_01 0.000000 0.000000 0.000000 0.000000 0.000000 0.000000 10.000000 
R_Toe2_01 0.000000 0.000000 0.000000 0.000000 0.000000 0.000000 10.000000 
R_Toe3_01 0.000000 0.000000 0.000000 0.000000 0.000000 0.000000 10.000000 
planeLockWeightRight 0.000000 0.000000 0.000000 0.000000 0.000000 0.000000 10.000000 
R_Toe1_02 0.000000 0.000000 0.000000 0.000000 0.000000 0.000000 10.000000 
R_Toe1_03 0.000000 0.000000 0.000000 0.000000 0.000000 0.000000 10.000000 
R_Toe2_02 0.000000 0.000000 0.000000 0.000000 0.000000 0.000000 10.000000 
R_Toe2_03 0.000000 0.000000 0.000000 0.000000 0.000000 0.000000 10.000000 
R_Toe3_02 0.000000 0.000000 0.000000 0.000000 0.000000 0.000000 10.000000 
R_Toe3_03 0.000000 0.000000 0.000000 0.000000 0.000000 0.000000 10.000000 
Rear_Leg02 0.000000 0.000000 0.000000 0.000000 0.000000 0.000000 10.000000 
Rear_Leg03 0.000000 0.000000 0.000000 0.000000 0.000000 0.000000 10.000000 
Rear_Leg04 0.000000 0.000000 0.000000 0.000000 0.000000 0.000000 10.000000 
Rear_Foot 0.000000 0.000000 0.000000 0.000000 0.000000 0.000000 10.000000 
planeAlignerCenter 0.000000 0.000000 0.000000 0.000000 0.000000 0.000000 10.000000 
Rear_Toe1_01 0.000000 0.000000 0.000000 0.000000 0.000000 0.000000 10.000000 
Rear_Toe2_01 0.000000 0.000000 0.000000 0.000000 0.000000 0.000000 10.000000 
Rear_Toe3_01 0.000000 0.000000 0.000000 0.000000 0.000000 0.000000 10.000000 
planeLockWeightCenter 0.000000 0.000000 0.000000 0.000000 0.000000 0.000000 10.000000 
Rear_Toe1_02 0.000000 0.000000 0.000000 0.000000 0.000000 0.000000 10.000000 
Rear_Toe1_03 0.000000 0.000000 0.000000 0.000000 0.000000 0.000000 10.000000 
Rear_Toe2_02 0.000000 0.000000 0.000000 0.000000 0.000000 0.000000 10.000000 
Rear_Toe2_03 0.000000 0.000000 0.000000 0.000000 0.000000 0.000000 10.000000 
Rear_Toe3_02 0.000000 0.000000 0.000000 0.000000 0.000000 0.000000 10.000000 
Rear_Toe3_03 0.000000 0.000000 0.000000 0.000000 0.000000 0.000000 10.000000 
Back_Bone 0.000000 0.000000 0.000000 0.000000 0.000000 0.000000 10.000000 
Head 0.000000 0.000000 0.000000 0.000000 0.000000 0.000000 10.000000 
Motor_Bone 0.000000 0.000000 0.000000 0.000000 0.000000 0.000000 10.000000 
Ping_Mechanism 0.000000 0.000000 0.000000 0.000000 0.000000 0.000000 10.000000 
BN_LookIK 0.000000 0.000000 0.000000 0.000000 0.000000 0.000000 10.000000 
bottomMouth 0.000000 0.000000 0.000000 0.000000 0.000000 0.000000 10.000000 
L_Mouth01 0.000000 0.000000 0.000000 0.000000 0.000000 0.000000 10.000000 
L_mouthFront 0.000000 0.000000 0.000000 0.000000 0.000000 0.000000 10.000000 
mouthGun 0.000000 0.000000 0.000000 0.000000 0.000000 0.000000 10.000000 
R_Mouth01 0.000000 0.000000 0.000000 0.000000 0.000000 0.000000 10.000000 
R_mouthFront 0.000000 0.000000 0.000000 0.000000 0.000000 0.000000 10.000000 
TopMouth 0.000000 0.000000 0.000000 0.000000 0.000000 0.000000 10.000000 
weapon_bone 0.000000 0.000000 0.000000 0.000000 0.000000 0.000000 10.000000 
#Beginning of Data. Separated by tabs
#Fr	Tx	Ty	Tz	Rx	Ry	Rz	SF
[Pinger_Root]
152 0.000000 0.000000 0.000000 -0.000075 -0.000000 -0.000020 0.000000
153 0.000000 0.000000 0.000000 -0.000075 -0.000000 -0.000020 0.000000
154 0.000000 0.000000 0.000000 -0.000075 -0.000000 -0.000020 0.000000
[Pelvis]
152 -26.978769 1162.567993 3764.947998 -94.942749 -76.897163 94.817200 3940.447266
153 101.947105 1162.568115 3700.634766 -96.014366 -76.641693 95.852356 3880.290527
154 225.837814 1162.568115 3651.591797 -97.046310 -76.381935 96.847885 3838.839600
[L_Hip]
152 5.766392 125.831482 872.656799 -121.855141 -74.309303 30.031704 881.701050
153 5.766392 125.831482 872.656799 -121.855164 -74.309326 30.031721 881.701050
154 5.766392 125.831482 872.656799 -121.855164 -74.309326 30.031721 881.701050
[R_Hip]
152 5.765438 125.836372 -872.654907 -61.848949 72.276680 26.135984 881.699829
153 5.765438 125.836372 -872.654907 -61.851017 72.276924 26.134237 881.699829
154 5.765438 125.836372 -872.654907 -61.853100 72.277168 26.132484 881.699829
[Rear_Leg01]
152 -192.298416 -925.602966 -0.001907 176.081467 -2.209617 -135.568024 945.367432
153 -192.298416 -925.602966 -0.001907 174.411621 -3.713128 -135.406616 945.367432
154 -192.298416 -925.602966 -0.001907 172.734161 -5.211246 -135.200989 945.367432
[Spine1]
152 290.604584 5.007505 0.000477 0.000510 1.097529 9.443393 290.647736
153 290.604584 5.007505 0.000477 0.000582 1.083051 9.446277 290.647736
154 290.604584 5.007505 0.000477 0.000654 1.068573 9.449160 290.647736
[L_Leg01]
152 761.932007 -0.002384 -0.069261 73.800522 -30.643658 -72.999748 761.932068
153 761.932007 -0.002384 -0.069261 73.551201 -31.931887 -69.535095 761.932068
154 761.932007 -0.002384 -0.069261 73.134651 -32.117821 -66.546036 761.932068
[L_Leg02]
152 1441.140503 -0.000954 -0.000715 6.664186 1.858351 -138.923813 1441.140503
153 1441.140503 -0.000954 -0.000715 6.871290 1.942270 -141.900055 1441.140503
154 1441.140503 -0.000954 -0.000715 6.946507 1.976125 -142.987961 1441.140503
[L_Leg03]
152 1686.963989 -0.000715 -0.000954 -0.100987 0.059853 137.618546 1686.963989
153 1686.963989 -0.000715 -0.000954 -0.100941 0.059930 137.706055 1686.963989
154 1686.963989 -0.000715 -0.000954 -0.100895 0.060007 137.793488 1686.963989
[L_Foot]
152 3041.570068 -30.715107 11.297464 2.655376 23.639132 72.584236 3041.746094
153 3041.570068 -30.715107 11.297464 0.019599 24.152065 72.547241 3041.746094
154 3041.570068 -30.715107 11.297464 -2.494022 24.356098 71.836121 3041.746094
[L_Toe1_01]
152 -188.216690 -224.732346 -21.137953 94.536530 -11.874323 -178.539001 293.899567
153 -188.216690 -224.732346 -21.137953 94.536530 -11.874325 -178.539001 293.899567
154 -188.216690 -224.732346 -21.137953 94.536530 -11.874324 -178.539001 293.899567
[L_Toe2_01]
152 200.746536 -219.926590 148.838394 -89.333794 -33.858082 -48.516533 332.896027
153 200.746536 -219.926590 148.838394 -89.333427 -33.858028 -48.517353 332.896027
154 200.746536 -219.926590 148.838394 -89.333046 -33.857964 -48.518185 332.896027
[L_Toe3_01]
152 188.832520 -219.859131 -191.078659 -97.078224 10.785587 -57.879002 347.140900
153 188.832520 -219.859131 -191.078659 -97.078224 10.785587 -57.879002 347.140900
154 188.832520 -219.859131 -191.078659 -97.078224 10.785587 -57.879002 347.140900
[planeAlignerLeft]
152 0.812531 -811.448792 -0.314951 0.000000 -90.000000 -90.001900 811.449280
153 0.812531 -811.448792 -0.314951 0.000000 -90.000000 -90.001900 811.449280
154 0.812531 -811.448792 -0.314951 0.000000 -90.000000 -90.001900 811.449280
[L_Toe1_02]
152 413.761139 0.000477 0.000000 0.000203 -25.410625 -0.000182 413.761139
153 413.761139 0.000477 0.000000 0.000203 -25.410625 -0.000182 413.761139
154 413.761139 0.000477 0.000000 0.000203 -25.410625 -0.000182 413.761139
[L_Toe1_03]
152 464.317322 0.000358 -0.000089 0.004342 58.635971 0.004342 464.317322
153 464.317322 0.000358 -0.000089 0.004342 58.635971 0.004342 464.317322
154 464.317322 0.000358 -0.000089 0.004342 58.635971 0.004342 464.317322
[L_Toe2_02]
152 342.235809 -0.000477 0.000238 0.001191 -70.156403 0.001191 342.235809
153 342.235809 -0.000477 0.000238 0.001191 -70.156403 0.001191 342.235809
154 342.235809 -0.000477 0.000238 0.001191 -70.156403 0.001191 342.235809
[L_Toe2_03]
152 420.210846 -0.000715 0.000000 0.013353 79.915703 0.013353 420.210846
153 420.210846 -0.000715 0.000000 0.013353 79.915703 0.013353 420.210846
154 420.210846 -0.000715 0.000000 0.013353 79.915703 0.013353 420.210846
[L_Toe3_02]
152 329.270111 0.000954 0.000000 0.001176 -83.099167 0.001176 329.270111
153 329.270111 0.000954 0.000000 0.001176 -83.098709 0.001176 329.270111
154 329.270111 0.000954 0.000000 0.001176 -83.098114 0.001176 329.270111
[L_Toe3_03]
152 439.137451 -0.001907 0.000954 179.990875 65.540901 179.998047 439.137451
153 439.137451 -0.001907 0.000954 179.990875 65.540901 179.998047 439.137451
154 439.137451 -0.001907 0.000954 179.990875 65.540901 179.998047 439.137451
[planeLockWeightLeft]
152 -0.000954 0.000238 -0.000305 -0.011826 -0.004376 0.005620 0.001029
153 -0.000954 0.000238 -0.000305 -0.011826 -0.004376 0.005620 0.001029
154 -0.000954 0.000238 -0.000305 -0.011826 -0.004376 0.005620 0.001029
[R_Leg01]
152 761.455627 -0.001907 -0.000358 135.763840 -19.751833 77.046631 761.455688
153 761.455627 -0.001907 -0.000358 139.867188 -22.156319 76.185875 761.455688
154 761.455627 -0.001907 -0.000358 143.255798 -23.987991 75.737526 761.455688
[R_Leg02]
152 1441.140625 0.000000 -0.000238 -0.788767 -0.175874 -112.326355 1441.140625
153 1441.140625 0.000000 -0.000238 -0.916555 -0.268145 -120.233513 1441.140625
154 1441.140625 0.000000 -0.000238 -1.013200 -0.355778 -126.579445 1441.140625
[R_Leg03]
152 1686.963989 0.000954 0.001431 0.091796 -0.049503 135.126221 1686.963989
153 1686.963989 0.000954 0.001431 0.098918 -0.058871 137.555450 1686.963989
154 1686.963989 0.000954 0.001431 0.104328 -0.063351 139.369522 1686.963989
[R_Foot]
152 3041.560059 -30.531288 -11.204481 20.142752 4.745670 50.967293 3041.734131
153 3041.560059 -30.531288 -11.204481 18.178938 6.954398 53.969460 3041.734131
154 3041.560059 -30.531288 -11.204481 16.297709 8.573940 56.771736 3041.734131
[planeAlignerRight]
152 -0.635147 -812.270569 -0.364304 0.000000 -89.960434 -90.005180 812.270874
153 -0.635147 -812.270569 -0.364304 0.000000 -89.960434 -90.005180 812.270874
154 -0.635147 -812.270569 -0.364304 0.000000 -89.960434 -90.005180 812.270874
[R_Toe1_01]
152 -188.383347 -224.864899 21.052242 99.841698 0.497162 -174.886108 294.101532
153 -188.383347 -224.864899 21.052242 99.899124 -0.564866 -175.876602 294.101532
154 -188.383347 -224.864899 21.052242 99.974892 -1.625711 -176.868439 294.101532
[R_Toe2_01]
152 200.637817 -220.002121 -148.787384 -94.293159 6.804559 -47.796734 332.857574
153 200.637817 -220.002121 -148.787384 -95.088722 7.557030 -47.578354 332.857574
154 200.637817 -220.002121 -148.787384 -95.825523 8.420808 -47.594193 332.857574
[R_Toe3_01]
152 188.606735 -220.092957 191.126343 -75.168816 -40.753254 -54.418339 347.192566
153 188.606735 -220.092957 191.126343 -76.780586 -40.406662 -52.863468 347.192566
154 188.606735 -220.092957 191.126343 -78.204720 -39.915134 -51.651752 347.192566
[planeLockWeightRight]
152 -0.000477 0.000000 0.000000 -0.011823 -0.004379 -0.000027 0.000477
153 -0.000477 0.000000 0.000000 -0.011823 -0.004379 -0.000027 0.000477
154 -0.000477 0.000000 0.000000 -0.011823 -0.004379 -0.000027 0.000477
[R_Toe1_02]
152 413.762085 0.000477 -0.000119 0.001393 -24.753136 0.001393 413.762085
153 413.762085 0.000477 -0.000119 0.001394 -24.694912 0.001394 413.762085
154 413.762085 0.000477 -0.000119 0.001394 -24.636690 0.001394 413.762085
[R_Toe1_03]
152 464.317810 0.000000 0.001088 0.006536 69.310684 0.006536 464.317810
153 464.317810 0.000000 0.001088 0.006684 69.774223 0.006684 464.317810
154 464.317810 0.000000 0.001088 0.006772 70.039673 0.006772 464.317810
[R_Toe2_02]
152 342.234741 -0.000954 0.000238 0.001200 -65.913132 0.001200 342.234741
153 342.234741 -0.000954 0.000238 0.001198 -66.752922 0.001198 342.234741
154 342.234741 -0.000954 0.000238 0.001197 -67.320396 0.001197 342.234741
[R_Toe2_03]
152 420.210846 0.000715 -0.000268 -0.005281 71.167305 -0.001738 420.210846
153 420.210846 0.000715 -0.000268 0.007801 72.694878 0.007801 420.210846
154 420.210846 0.000715 -0.000268 0.008414 73.964828 0.008414 420.210846
[R_Toe3_02]
152 329.270355 -0.000477 -0.000954 0.001183 -75.785515 0.001183 329.270355
153 329.270355 -0.000477 -0.000954 0.001182 -76.053635 0.001182 329.270355
154 329.270355 -0.000477 -0.000954 0.001182 -76.321770 0.001182 329.270355
[R_Toe3_03]
152 439.137939 0.000238 0.001431 -0.020929 86.565613 -0.017431 439.137939
153 439.137939 0.000238 0.001431 -0.026787 87.369316 -0.023289 439.137939
154 439.137939 0.000238 0.001431 -0.037795 88.172760 -0.034298 439.137939
[Rear_Leg02]
152 1162.777710 -0.029802 0.005960 -3.208476 6.345501 -96.293495 1162.777710
153 1162.777710 -0.029802 0.005960 -3.741532 6.995389 -97.595863 1162.777710
154 1162.777710 -0.029802 0.005960 -3.964142 7.210695 -98.250572 1162.777710
[Rear_Leg03]
152 607.192505 -0.013351 -0.073195 0.010408 -0.005275 70.106232 607.192505
153 607.192505 -0.013351 -0.073195 0.010389 -0.005312 70.511429 607.192505
154 607.192505 -0.013351 -0.073195 0.010383 -0.005323 70.641747 607.192505
[Rear_Leg04]
152 995.874512 -0.020504 -0.011921 -0.040735 -0.017597 70.632904 995.874573
153 995.874512 -0.020504 -0.011921 -0.040883 -0.017251 71.605453 995.874573
154 995.874512 -0.020504 -0.011921 -0.040957 -0.017075 72.100029 995.874573
[Rear_Foot]
152 3096.176270 -0.067472 -0.041425 97.785385 83.516861 -81.462448 3096.176270
153 3096.176270 -0.067472 -0.041425 109.284088 82.424484 -69.584892 3096.176270
154 3096.176270 -0.067472 -0.041425 120.095596 81.441452 -58.478214 3096.176270
[planeAlignerCenter]
152 0.350077 0.966311 -838.790894 0.000009 0.000003 -179.999985 838.791565
153 0.350077 0.966311 -838.790894 0.000009 0.000003 -179.999985 838.791565
154 0.350077 0.966311 -838.790894 0.000009 0.000003 -179.999985 838.791565
[Rear_Toe1_01]
152 0.653352 83.966492 -371.173737 4.641474 25.002390 103.373718 380.553192
153 0.653352 83.966492 -371.173737 4.531631 24.185497 103.347000 380.553192
154 0.653352 83.966492 -371.173737 4.422910 23.368748 103.322151 380.553192
[Rear_Toe2_01]
152 178.200760 -294.826019 -362.060547 -8.477273 18.510481 -73.310707 499.765686
153 178.200760 -294.826019 -362.060547 -8.437809 17.850737 -73.300186 499.765686
154 178.200760 -294.826019 -362.060547 -8.398621 17.191128 -73.290169 499.765686
[Rear_Toe3_01]
152 -153.359680 -308.780914 -362.060852 4.570999 15.665326 -119.322548 499.952881
153 -153.359680 -308.780914 -362.060852 4.685925 15.057871 -119.288200 499.952881
154 -153.359680 -308.780914 -362.060852 4.800129 14.450478 -119.255203 499.952881
[planeLockWeightCenter]
152 -0.000062 0.000238 0.000000 -0.011814 -0.004373 -0.000015 0.000246
153 -0.000062 0.000238 0.000000 -0.011814 -0.004373 -0.000015 0.000246
154 -0.000062 0.000238 0.000000 -0.011814 -0.004373 -0.000015 0.000246
[Rear_Toe1_02]
152 379.707825 0.194073 0.000477 0.001332 -33.511127 0.001332 379.707855
153 379.707825 0.194073 0.000477 0.001332 -33.516293 0.001332 379.707855
154 379.707825 0.194073 0.000477 0.001332 -33.521469 0.001332 379.707855
[Rear_Toe1_03]
152 500.129700 0.165701 0.000119 0.000712 68.432884 0.002492 500.129761
153 500.129700 0.165701 0.000119 0.006598 69.509377 0.006598 500.129761
154 500.129700 0.165701 0.000119 0.006907 70.432755 0.006907 500.129761
[Rear_Toe2_02]
152 340.494507 0.000238 -0.000954 0.001179 -78.996468 0.001179 340.494507
153 340.494507 0.000238 -0.000954 0.001179 -78.967178 0.001179 340.494507
154 340.494507 0.000238 -0.000954 0.001179 -78.937881 0.001179 340.494507
[Rear_Toe2_03]
152 433.103577 0.000000 0.000238 0.031178 85.685295 0.031178 433.103546
153 433.103577 0.000000 0.000238 0.030449 85.582169 0.030449 433.103546
154 433.103577 0.000000 0.000238 0.029754 85.478874 0.029754 433.103546
[Rear_Toe3_02]
152 340.494141 -0.000358 -0.000477 -0.002474 -49.819221 -0.002474 340.494171
153 340.494141 -0.000358 -0.000477 -0.002475 -49.689777 -0.002475 340.494171
154 340.494141 -0.000358 -0.000477 -0.002476 -49.560345 -0.002476 340.494171
[Rear_Toe3_03]
152 433.103577 0.001431 -0.000238 0.000423 44.146503 -0.003374 433.103546
153 433.103577 0.001431 -0.000238 0.000428 44.006489 -0.003370 433.103546
154 433.103577 0.001431 -0.000238 0.000433 43.866467 -0.003367 433.103546
[Back_Bone]
152 1312.175781 -701.934692 0.000954 0.000126 0.002344 -83.859886 1488.125488
153 1312.175781 -701.934692 0.000954 0.000114 0.002345 -84.442329 1488.125488
154 1312.175781 -701.934692 0.000954 0.000102 0.002345 -85.024681 1488.125488
[Head]
152 1406.159424 809.709290 0.001431 -0.049930 11.367692 42.491482 1622.625488
153 1406.159424 809.709290 0.001431 -0.049870 11.366475 42.488235 1622.625488
154 1406.159424 809.709290 0.001431 -0.049812 11.365257 42.484997 1622.625488
[Motor_Bone]
152 1158.364380 -417.834747 0.000477 -0.095385 0.076104 -105.915718 1231.419434
153 1158.364380 -417.834747 0.000477 -0.095385 0.076104 -105.915695 1231.419434
154 1158.364380 -417.834747 0.000477 -0.095385 0.076104 -105.915703 1231.419434
[Ping_Mechanism]
152 1280.457397 -458.922394 -0.378168 0.000103 -0.000053 82.120995 1360.213623
153 1280.731689 -458.144714 -0.372885 0.000103 -0.000053 82.120995 1360.209717
154 1281.005859 -457.367096 -0.367602 0.000103 -0.000053 82.120995 1360.206177
[BN_LookIK]
152 193.241119 1380.371704 -0.002861 0.000000 89.965736 -31.038179 1393.832153
153 193.241119 1380.371704 -0.002861 0.000000 89.965736 -31.038179 1393.832153
154 193.241119 1380.371704 -0.002861 0.000000 89.965736 -31.038179 1393.832153
[bottomMouth]
152 -435.092926 615.759399 -0.000954 -0.000022 0.000016 73.527184 753.966492
153 -435.092926 615.759399 -0.000954 -0.000022 0.000016 73.527184 753.966492
154 -435.092926 615.759399 -0.000954 -0.000022 0.000016 73.527184 753.966492
[L_Mouth01]
152 554.440979 7.658243 838.222046 150.204178 23.759130 109.605339 1005.027161
153 554.440979 7.658243 838.222046 150.204178 23.759130 109.605339 1005.027161
154 554.440979 7.658243 838.222046 150.204178 23.759130 109.605339 1005.027161
[L_mouthFront]
152 551.629089 934.514771 339.150421 0.000081 2.804060 79.119301 1136.941284
153 551.629089 934.514771 339.150421 0.000081 2.804060 79.119301 1136.941284
154 551.629089 934.514771 339.150421 0.000081 2.804060 79.119301 1136.941284
[mouthGun]
152 55.332661 1627.420898 0.000000 0.000023 0.000009 -11.038128 1628.361328
153 55.332661 1627.420898 0.000000 0.000023 0.000009 -11.038128 1628.361328
154 55.332661 1627.420898 0.000000 0.000023 0.000009 -11.038128 1628.361328
[R_Mouth01]
152 554.442383 7.659197 -838.223938 29.795891 -23.759109 109.605331 1005.029541
153 554.442383 7.659197 -838.223938 29.795891 -23.759109 109.605331 1005.029541
154 554.442383 7.659197 -838.223938 29.795891 -23.759109 109.605331 1005.029541
[R_mouthFront]
152 551.629089 934.514282 -339.151367 0.000029 -2.803930 79.119133 1136.941162
153 551.629089 934.514282 -339.151367 0.000029 -2.803930 79.119133 1136.941162
154 551.629089 934.514282 -339.151367 0.000029 -2.803930 79.119133 1136.941162
[TopMouth]
152 461.269867 -56.106091 -0.008583 -0.000059 -0.000268 92.025169 464.669525
153 461.269867 -56.106091 -0.008583 -0.000059 -0.000268 92.025169 464.669525
154 461.269867 -56.106091 -0.008583 -0.000059 -0.000268 92.025169 464.669525
[weapon_bone]
152 -987.239868 1448.372803 0.001431 0.000000 89.965736 -31.038221 1752.833740
153 -987.239868 1448.372803 0.001431 0.000000 89.965736 -31.038221 1752.833740
154 -987.239868 1448.372803 0.001431 0.000000 89.965736 -31.038221 1752.833740
